<svg xmlns="http://www.w3.org/2000/svg" width="327" height="33" viewBox="0 0 327 33"><defs><style>.a,.b{fill:#fff;}.b{font-size:20px;font-family:Roboto-Medium, Roboto;font-weight:500;}</style></defs><g transform="translate(-360 -29)"><g transform="translate(194.378 -213.462)"><path class="a" d="M249.569,270.977H239.094V255.414h10.475a5.3,5.3,0,0,1,5.3,5.3v4.969A5.3,5.3,0,0,1,249.569,270.977Zm-6.971-3.5h6.447a2.318,2.318,0,0,0,2.318-2.318v-3.92a2.318,2.318,0,0,0-2.318-2.318H242.6Z"/><path class="a" d="M277.866,271.081h-5.2a5.3,5.3,0,0,1-5.3-5.3V255.309h3.5v9.951a2.318,2.318,0,0,0,2.318,2.318h3.92a2.318,2.318,0,0,0,2.318-2.318v-9.951h3.5v10.71A5.062,5.062,0,0,1,277.866,271.081Z"/><path class="a" d="M234.3,258.917v-3.5H219.643v15.563H234.3v-3.5H223.147V264.9h8.7v-3.5h-8.7v-2.479Z"/><rect class="a" width="3.504" height="15.549" transform="translate(259.07 255.374)"/><path class="a" d="M213.244,255.012l-7.106,4.154-7.106-4.154-1.6.923v15.042h3.5V260.184l5.2,3.04,5.2-3.04v10.792h3.5V255.934Z"/><path class="a" d="M303.2,255.012l-7.106,4.154-7.106-4.154-1.6.923v15.042h3.5V260.184l5.2,3.04,5.2-3.04v10.792h3.5V255.934Z"/><path class="a" d="M190.363,260.027l-5.076-8.727a.491.491,0,0,0-.283-.24l-4.058-.865c-.422-.091-.829-.189-1.209-.271a.364.364,0,0,1-.236-.545l1.7-2.824a1.529,1.529,0,0,0-.026-1.882s-1.938-2.466-2.531-2.189l-.012,0-3.033,1.758a.338.338,0,0,0-.2.375l.044.62a.369.369,0,0,1-.055.26l-1.1,1.615c-.131.194.027.417.1.492l.938,1.028a.309.309,0,0,1-.268.514l-3.63-.475a.391.391,0,0,0-.4.212l-5.369,10.646a.359.359,0,0,0,.252.514l5.655,1.105a.376.376,0,0,0,.26-.047.371.371,0,0,0,.181-.241l1.291-5.742a.2.2,0,0,1,.2-.185.206.206,0,0,1,.2.217l-.592,5.822a.512.512,0,0,1-.175.329.506.506,0,0,1-.185.109l-4.9,1.5a.439.439,0,0,0-.3.493l1.446,9.784a.492.492,0,0,0,.485.41h6.346a.226.226,0,0,0,.225-.242l-.65-10.394a.226.226,0,0,1,.308-.226l2.032.8a.5.5,0,0,0,.461-.051l1.472-1a.225.225,0,0,1,.347.139l.216,1.013,1.82,9.777a.226.226,0,0,0,.221.179h7.493a.226.226,0,0,0,.213-.3L186.4,262.026a.226.226,0,0,1,.134-.287l3.71-1.387A.225.225,0,0,0,190.363,260.027Zm-6.051.189-1.94.668a.226.226,0,0,1-.3-.217v-.02s.1-5.723.1-5.75.06-.067.1.013l2.176,5A.225.225,0,0,1,184.312,260.216Z"/></g><text class="b" transform="translate(509 57)"><tspan x="0" y="0">Blockchain Explorer</tspan></text></g></svg>